{"title":"Anywhere But Here 1999 DVDRip XviD AC3-INFERNO","uid":7030445,"size":1471586870,"categoryP":"video","categoryS":"movies","magnet":"?xt=urn:btih:5113659c2d1f1aa5e5502e13c9d22c9800715d47&amp;dn=Anywhere+But+Here+1999+DVDRip+XviD+AC3-INFERNO&amp;tr=udp%3A%2F%2Ftracker.openbittorrent.com%3A80&amp;tr=udp%3A%2F%2Fopen.demonii.com%3A1337&amp;tr=udp%3A%2F%2Ftracker.coppersurfer.tk%3A6969&amp;tr=udp%3A%2F%2Fexodus.desync.com%3A6969","seeders":0,"leechers":1,"uploader":"TvTeam","files":4,"time":1329202942,"description":". \n &lt;a href=&quot;\nhttp://www.torrenting.com&quot; rel=&quot;nofollow&quot; target=&quot;_NEW&quot;&gt;\nhttp://www.torrenting.com&lt;/a&gt;          :     Once &amp; For all ;)\n\n\n               www . Torrenting . Com \n\n(((((((((((((= Enjoy No RAR releases =))))))))))))))))))))\n\n\n...................................NFO:....................................\n\n[center][img]http://lookpic.com/O/i2/530/Dvvv4Xdd.jpeg[/img][/center]\n[img]http://lookpic.com/O/i2/298/l4OrvnSi.png[/img]\n\n[b]\nSource: PAL DVDR\n\nI found this DVDR in russia\nand noticed a copy never made it's way on here.\nNot my cup of tea but i'm sure someone out there\nwill enjoy it.\n\n[pre]\n Anywhere But Here 1999 DVDRip XviD AC3-INFERNO\n\nFormat                           : AVI\nFormat/Info                      : Audio Video Interleave\nFile size                        : 1.37 GiB\nDuration                         : 1h 49mn\nOverall bit rate                 : 1 797 Kbps\n\nVideo\nID                               : 0\nFormat                           : MPEG-4 Visual\nFormat profile                   : Advanced Simple@L5\nFormat settings, BVOP            : 2\nFormat settings, QPel            : No\nFormat settings, GMC             : No warppoints\nFormat settings, Matrix          : Default (H.263)\nMuxing mode                      : Packed bitstream\nCodec ID                         : XVID\nCodec ID/Hint                    : XviD\nDuration                         : 1h 49mn\nBit rate                         : 1 403 Kbps\nWidth                            : 720 pixels\nHeight                           : 304 pixels\nDisplay aspect ratio             : 2.35:1\nFrame rate                       : 25.000 fps\nColor space                      : YUV\nChroma subsampling               : 4:2:0\nBit depth                        : 8 bits\nScan type                        : Progressive\nCompression mode                 : Lossy\nBits/(Pixel*Frame)               : 0.256\nStream size                      : 1.07 GiB (78%)\nWriting library                  : XviD 64\n\nAudio\nID                               : 1\nFormat                           : AC-3\nFormat/Info                      : Audio Coding 3\nMode extension                   : CM (complete main)\nCodec ID                         : 2000\nDuration                         : 1h 49mn\nBit rate mode                    : Constant\nBit rate                         : 384 Kbps\nChannel(s)                       : 6 channels\nChannel positions                : Front: L C R, Side: L R, LFE\nSampling rate                    : 48.0 KHz\nBit depth                        : 16 bits\nCompression mode                 : Lossy\nStream size                      : 300 MiB (21%)\nAlignment                        : Aligned on interleaves\nInterleave, duration             : 40 ms (1.00 video frame)\nInterleave, preload duration     : 512 ms[/b]","torrent":{"xt":"urn:btih:5113659c2d1f1aa5e5502e13c9d22c9800715d47","amp;dn":"Anywhere+But+Here+1999+DVDRip+XviD+AC3-INFERNO","amp;tr":["udp%3A%2F%2Ftracker.openbittorrent.com%3A80","udp%3A%2F%2Fopen.demonii.com%3A1337","udp%3A%2F%2Ftracker.coppersurfer.tk%3A6969","udp%3A%2F%2Fexodus.desync.com%3A6969"],"infoHash":"5113659c2d1f1aa5e5502e13c9d22c9800715d47","infoHashBuffer":{"type":"Buffer","data":[81,19,101,156,45,31,26,165,229,80,46,19,201,210,44,152,0,113,93,71]},"announce":[],"urlList":[]}}